<?xml version="1.0" encoding="UTF-8"?>
<svg width="1200pt" height="1200pt" version="1.1" viewBox="0 0 1200 1200" xmlns="http://www.w3.org/2000/svg">
 <g>
  <path d="m595.2 470.4c-14.398 0-27.602 7.1992-37.199 18-12 12-18 30-18 55.199 0 25.199 6 43.199 16.801 54 9.6016 10.801 22.801 18 37.199 18 16.801 0 28.801-4.8008 40.801-18 10.801-12 15.602-30 15.602-54s-4.8008-43.199-15.602-55.199c-12-13.199-24-18-39.602-18z"/>
  <path d="m606 91.199c-310.8 0-564 200.4-564 446.4 0 106.8 46.801 204 124.8 280.8-22.801 63.602-61.199 144-127.2 219.6-27.602 31.199 0 78 39.602 69.602 153.6-32.398 264-96 336-150 58.801 16.801 122.4 26.398 189.6 26.398 310.8 0 564-200.4 564-446.4-0.003907-246-250.8-446.4-562.8-446.4zm262.8 459.6c0 7.1992-1.1992 13.199 0 19.199-2.3984 19.199-6 33.602-12 44.398-6 13.199-15.602 21.602-25.199 32.398-9.6016 8.3984-21.602 14.398-33.602 19.199-10.801 4.8008-24 6-37.199 6-24 0-42-3.6016-55.199-9.6016-14.398-6-24-13.199-30-20.398l-6-7.1992-4.8008 8.3984c-2.3984 4.8008-7.1992 8.3984-10.801 13.199-4.8008 4.8008-9.6016 9.6016-15.602 12-6 3.6016-13.199 6-22.801 8.3984-8.3984 3.6016-20.398 3.6016-34.801 3.6016-15.602 0-30-3.6016-44.398-9.6016-14.398-7.1992-25.199-15.602-33.602-27.602-9.6016-12-18-26.398-21.602-43.199-4.8008-14.398-7.1992-33.602-7.1992-56.398 0-24 2.3984-43.199 7.1992-57.602 4.8008-18 12-31.199 20.398-43.199 10.801-12 19.199-21.602 33.602-27.602 12-6 26.398-9.6016 43.199-9.6016 13.199 0 31.199 1.1992 39.602 8.3984 8.3984 4.8008 14.398 12 21.602 20.398l12 14.398v-25.199c0-3.6016 1.1992-7.1992 2.3984-8.3984 4.8008-3.6016 7.1992-4.8008 9.6016-4.8008h44.398c3.6016 0 7.1992 1.1992 8.3984 3.6016 2.3984 2.3984 3.6016 4.8008 3.6016 8.3984v142.8c0 13.199 4.8008 24 13.199 32.398 8.3984 6 18 9.6016 28.801 9.6016 12 0 21.602-3.6016 28.801-10.801 7.1992-8.3984 9.6016-20.398 9.6016-34.801 1.1992-13.199 1.1992-26.398 1.1992-38.398 0-10.801 0-22.801-1.1992-36-3.6016-25.199-8.3984-48-15.602-69.602-6-18-18-34.801-36-50.398-18-14.398-38.398-24-60-28.801-24-7.1992-55.199-10.801-93.602-10.801-27.602 0-52.801 4.8008-80.398 12-19.199 6-38.398 16.801-58.801 32.398-14.398 14.398-26.398 32.398-34.801 51.602-7.1992 18-13.199 39.602-15.602 61.199-2.3984 8.3984-2.3984 16.801-2.3984 27.602 0 4.8008 0 9.6016-1.1992 14.398v15.602 18c0 4.8008 1.1992 9.6016 1.1992 14.398 0 9.6016 0 19.199 1.1992 26.398 1.1992 21.602 8.3984 44.398 18 63.602 9.6016 20.398 21.602 37.199 37.199 51.602 15.602 13.199 34.801 25.199 57.602 32.398 22.801 7.1992 48 10.801 78 10.801 24 0 43.199 0 58.801-2.3984 15.602-1.1992 26.398-4.8008 37.199-8.3984h1.1992c18-6 36-4.8008 52.801 2.3984l4.8008 2.3984c8.3984 4.8008 13.199 12 13.199 20.398s-4.8008 15.602-13.199 20.398c-18 7.1992-40.801 16.801-67.199 21.602-21.602 6-46.801 8.3984-86.398 8.3984-44.398 0-79.199-6-108-18-30-10.801-57.602-27.602-79.199-48-21.602-19.199-38.398-43.199-49.199-68.398-9.6016-24-20.398-52.801-21.602-86.398-1.1992-6-1.1992-14.398-1.1992-24v-69.602c0-9.6016 0-18 2.3984-25.199 1.1992-28.801 8.3984-56.398 19.199-84 9.6016-24 25.199-48 48-70.801 19.199-19.199 45.602-36 76.801-49.199 34.801-12 72-18 114-18 49.199 0 92.398 6 128.4 18 31.199 10.801 57.602 26.398 80.398 48 21.602 19.199 36 42 45.602 69.602 8.3984 30 15.602 57.602 18 85.199 0 4.8008 0 12 1.1992 18 0 7.1992 1.1992 15.602 1.1992 22.801-2.3945 10.812-2.3945 18.012-3.5938 26.414z"/>
 </g>
</svg>
