<?xml version="1.0" encoding="UTF-8"?>
<svg width="1200pt" height="1200pt" version="1.1" viewBox="0 0 1200 1200" xmlns="http://www.w3.org/2000/svg">
 <g>
  <path d="m1111.6 616.73c-40.91-25.453-93.09-24.547-132.91 2.1836l-7.6367 5.0898c-33.637-28.184-81.453-34.184-121.82-13.816l-223.64 114.36c-1.4531-0.72656-2.7266-1.4531-4.1836-2.3633l-260.91-120.37c-24-10.91-50.184-14.547-75.453-10.727l-211.46 31.637c-24.184 3.4531-42.363 24.547-42.363 49.09v319.82c0 27.273 22.184 49.637 49.637 49.637h102.36c23.453 0 46.727 4.5469 68.91 13.637l297.09 119.64c12.184 4.9102 24.91 7.2734 37.637 7.2734 20.91 0 41.816-6.5469 59.453-19.453l472-343.64c31.816-23.09 50.184-59.09 50.184-98.547 0.17969-42.18-21.094-80.906-56.91-103.45zm-246 26.184c23.816-12 51.637-10.363 73.273 2.9102l-252 169.82c-2.1836-24.91-12.547-48.184-29.273-66.547zm-798 348.91v-319.82c0-6.5469 4.7266-12.184 11.273-13.273l84.727-12.727v358.91h-82.727c-7.2734 0.17969-13.273-5.8203-13.273-13.094zm1029.5-202.54-472 343.64c-18.184 13.273-41.453 16.184-62.184 7.8164l-297.09-119.64c-21.273-8.5469-43.273-13.637-65.637-15.453l0.003906-365.09 90.363-13.453c4.7266-0.72656 9.4531-1.0898 14.363-1.0898 13.816 0 27.637 3.0898 40.547 8.9102l260.18 120.36c3.2734 1.6367 6.5469 3.0898 9.4531 5.2734 0.54688 0.36328 1.2734 0.72656 2 1.0898 21.453 14.547 34 38.363 34 64.184 0 7.6367-1.0898 14.727-3.0898 20.91-0.18359 0.54688-0.18359 0.91016-0.18359 1.4531 0 0.36328-0.36328 0.72656-0.36328 1.0898l-1.0898 2.5469c-10.547 30.547-40.547 51.816-72.91 51.816-11.09 0-22-2.5469-32.547-7.2734l-211.46-98.184c-9.0898-4.1836-20-0.18359-24.184 8.9102-4.1836 9.0898-0.18359 20 8.9102 24.184l211.45 98c15.273 7.0898 31.453 10.727 47.816 10.727 47.816 0 91.816-31.453 106.91-75.09 0.18359-0.36328 0.18359-0.54687 0.36328-0.91016l298.55-201.27 19.816-13.273c28-18.91 64.727-19.453 93.453-1.6367 25.09 15.816 40 42.91 40 72.547-0.17578 27.449-13.086 52.723-35.449 68.906z"/>
  <path d="m464.18 524.91h90c7.4531 0 14.184-4.5469 16.91-11.637l181.63-470.36c2.1836-5.6367 1.4531-11.816-2-16.91-3.4531-5.0898-8.9102-7.8164-14.91-7.8164h-90.547c-7.4531 0-14.184 4.5469-16.91 11.637l-181.09 470.36c-2.1836 5.6367-1.4531 11.816 2 16.91 3.2734 4.9062 8.9102 7.8164 14.91 7.8164zm193.45-470.36h51.637l-167.64 434h-50.91z"/>
  <path d="m41.09 318 318.18 163.82c2.5469 1.2734 5.4531 2 8.3633 2 3.2734 0 6.5469-0.91016 9.4531-2.7266 5.4531-3.2734 8.7266-9.2734 8.7266-15.453v-93.816c0-6.9102-3.8164-13.09-10-16.184l-167.45-84 167.45-84c6.1836-3.0898 10-9.4531 10-16.184v-94c0-6.3633-3.2734-12.184-8.7266-15.453-5.4531-3.2734-12.184-3.4531-17.816-0.72656l-318.18 163.82c-6 3.0898-9.8164 9.2734-9.8164 16.184v60.547c0 6.7266 3.8164 12.906 9.8164 16.18zm26.547-65.637 281.82-145.09v52.727l-190 95.273c-6.1836 3.0898-10 9.4531-10 16.184 0 6.7266 3.8164 13.09 10 16.184l190 95.273v52.727l-281.82-145.09z"/>
  <path d="m1158.7 224.55-318.18-163.09c-5.6367-2.9102-12.363-2.7266-17.816 0.72656-5.4531 3.2734-8.7266 9.0898-8.7266 15.453v93.816c0 6.9102 3.8164 13.273 10 16.363l168.73 83.816-168.73 83.816c-6.1836 3.0898-10 9.4531-10 16.363v93.816c0 6.3633 3.2734 12.184 8.7266 15.453 2.9102 1.8164 6.1836 2.7266 9.4531 2.7266 2.9102 0 5.6367-0.72656 8.3633-2l318.18-163.09c6-3.0898 9.8164-9.2734 9.8164-16.184v-61.637c0.18359-7.082-3.6328-13.262-9.8164-16.352zm-26.363 66.727-281.82 144.55v-52.727l191.27-95.09c6.1836-3.0898 10-9.4531 10-16.363s-3.8164-13.273-10-16.363l-191.27-95.277v-52.727l281.82 144.55z"/>
  <path d="m122 677.82c-10 0-18.184 8.1836-18.184 18.184v32c0 10 8.1836 18.184 18.184 18.184s18.184-8.1836 18.184-18.184v-32c0-10.184-8-18.184-18.184-18.184z"/>
  <path d="m122 793.64c-10 0-18.184 8.1836-18.184 18.184v32c0 10 8.1836 18.184 18.184 18.184s18.184-8.1836 18.184-18.184v-32c0-10.004-8-18.184-18.184-18.184z"/>
  <path d="m122 909.45c-10 0-18.184 8.1836-18.184 18.184v32c0 10 8.1836 18.184 18.184 18.184s18.184-8.1836 18.184-18.184v-32c0-10-8-18.184-18.184-18.184z"/>
 </g>
</svg>
