<?xml version="1.0" encoding="UTF-8"?>
<svg width="1200pt" height="1200pt" version="1.1" viewBox="0 0 1200 1200" xmlns="http://www.w3.org/2000/svg">
 <g>
  <path d="m674.52 816 17.281 9.9609-7.8008 13.32c-19.164 33.52-43.918 63.512-73.199 88.68-19.469 17.195-43.531 28.332-69.242 32.039-23.562 4.6406-47.945-1.9219-66-17.762-7.8438-7.0703-13.684-16.086-16.93-26.137-3.2461-10.051-3.7773-20.777-1.5508-31.102 4.6797-24.84 11.398-49.32 18.359-73.559 21.359-74.879 43.32-149.64 64.68-224.4l0.003906-0.003907c2.5664-10.34 4.4102-20.844 5.5195-31.438 0.87109-8.4648-1.832-16.91-7.4609-23.293-5.6328-6.3828-13.672-10.117-22.18-10.309h-24c1.9219-6.4805 3.4805-12 5.6406-18.359 0-1.1992 3.1211-2.0391 4.9219-2.2812 54.719-9.3594 109.44-18.238 165.12-26.758 10.785-0.78516 21.613-0.78516 32.398 0-4.4414 15.359-8.7617 30.602-13.199 45.719-30.16 104.56-60.281 209.08-90.359 313.56-3.4805 12-5.3984 24-8.2812 36.719v0.003906c-1.0547 3.6602-0.86328 7.5742 0.54688 11.117 1.4141 3.5391 3.9648 6.5117 7.2539 8.4414 3.0195 1.9219 6.6289 2.6992 10.172 2.1914 3.543-0.50781 6.7891-2.2617 9.1484-4.9531 10.738-9.6953 20.84-20.078 30.242-31.078 9.4805-11.398 17.52-24 26.16-36 0.82812-1.4961 1.75-2.9375 2.7578-4.3203z"/>
  <path d="m595.32 314.52c-0.19141-19.594 7.418-38.461 21.148-52.438 13.73-13.98 32.457-21.922 52.051-22.082 19.945-0.44922 39.242 7.082 53.613 20.918 14.371 13.832 22.629 32.832 22.938 52.777 0.3125 19.945-7.3516 39.191-21.281 53.469-13.934 14.273-32.988 22.402-52.938 22.574-19.945 0.17578-39.141-7.6172-53.32-21.648s-22.176-33.141-22.211-53.09z"/>
  <path d="m600 30c-151.17 0-296.16 60.055-403.05 166.95s-166.95 251.88-166.95 403.05 60.055 296.16 166.95 403.05 251.88 166.95 403.05 166.95 296.16-60.055 403.05-166.95 166.95-251.88 166.95-403.05c-0.19141-151.11-60.305-295.98-167.16-402.84-106.86-106.86-251.73-166.97-402.84-167.16zm0 1038.7c-124.31 0-243.53-49.383-331.43-137.29s-137.29-207.12-137.29-331.43 49.383-243.53 137.29-331.43 207.12-137.29 331.43-137.29 243.53 49.383 331.43 137.29 137.29 207.12 137.29 331.43c-0.125 124.27-49.551 243.42-137.43 331.29-87.871 87.875-207.02 137.3-331.29 137.43z"/>
 </g>
</svg>
