<?xml version="1.0" encoding="UTF-8"?>
<!-- Created with Inkscape (http://www.inkscape.org/) -->
<svg id="b" width="512" height="512" version="1.1" viewBox="0 0 512 512" xmlns="http://www.w3.org/2000/svg">
 <defs id="c">
  <filter id="a" x="-.20639" y="-.31082" width="1.3514" height="1.4891" color-interpolation-filters="sRGB">
   <feFlood id="d" flood-color="rgb(255,139,66)" result="flood"/>
   <feComposite id="e" in="flood" in2="SourceGraphic" operator="out" result="composite1"/>
   <feGaussianBlur id="f" in="composite1" result="blur" stdDeviation="16.7041"/>
   <feOffset id="g" dx="-16.9716" dy="-29.8211" result="offset"/>
   <feComposite id="h" in="offset" in2="SourceGraphic" operator="atop" result="composite2"/>
  </filter>
 </defs>
 <g id="i">
  <rect id="j" x="1.4211e-14" width="512" height="512" fill="#3a0099"/>
  <g id="k" transform="translate(34.958)" fill="#00db54" filter="url(#a)">
   <path id="l" d="m144 365.35v-182.98h-61.201v-38.833h167.76v38.833h-61.512v182.98z"/>
   <path id="m" d="m262.66 368.46q-27.028 0-42.251-15.844-14.912-16.155-14.912-46.289v-110.6h45.047v99.103q0 17.087 5.9027 26.717t21.436 9.6307q14.912 0 22.679-6.8347 7.7667-6.8347 10.563-19.261 3.1067-12.737 3.1067-29.513v-79.841h45.047v169.62h-34.173l-7.456-21.747h-2.4853q-7.456 11.805-21.436 18.329-13.669 6.524-31.067 6.524z"/>
  </g>
 </g>
</svg>
