<?xml version="1.0" encoding="UTF-8"?>
<svg width="214.9" height="20.371" version="1.1" viewBox="0 0 56.858 5.3897" xmlns="http://www.w3.org/2000/svg">
 <g transform="translate(-3.5326 -3.7712)">
  <g transform="matrix(.49578 0 0 .49578 -.018676 .10165)" fill="#fff" stroke-width=".26458" aria-label="Turingg Computing">
   <path d="m13.394 9.3884v-1.3885h-6.2315v1.3885h2.2691v6.4911h1.6933v-6.4911z"/>
   <path d="m18.034 15.88h1.6708v-5.8251h-1.6708v3.8269c0 0.56444-0.508 0.84667-1.0273 0.84667-0.65476 0-0.98213-0.39511-0.98213-1.1289v-3.5447h-1.6708v3.7705c0 1.4111 0.77893 2.19 1.8965 2.19 0.93698 0 1.4563-0.54187 1.7159-1.1966h0.06773z"/>
   <path d="m21.274 15.88h4.4704v-1.2982h-1.4563v-1.7272c0-0.69991 0.42898-1.2644 1.2531-1.2644h1.2418v-1.5353h-0.55316c-1.1515 0-1.6482 0.79022-1.8627 1.6482h-0.07902v-1.6482h-3.0141v1.2982h1.3434v3.2286h-1.3434z"/>
   <path d="m30.96 9.3094c0.74507 0 1.0047-0.34996 1.0047-0.79022v-0.32738c0-0.45156-0.25964-0.79022-1.0047-0.79022-0.74507 0-1.0047 0.33867-1.0047 0.79022v0.32738c0 0.44027 0.25964 0.79022 1.0047 0.79022zm-2.6868 6.5701h5.238v-1.2982h-1.7159v-4.5268h-3.5221v1.2982h1.8514v3.2286h-1.8514z"/>
   <path d="m36.39 15.88v-3.8269c0-0.56444 0.508-0.84667 1.0273-0.84667 0.65476 0 0.98213 0.39511 0.98213 1.1289v3.5447h1.6708v-3.7705c0-1.4111-0.77893-2.19-1.8965-2.19-0.93698 0-1.4563 0.54187-1.7159 1.1966h-0.06773v-1.0612h-1.6708v5.8251z"/>
   <path d="m47.34 16.467c0-0.98213-0.64347-1.682-2.3142-1.682h-1.3321c-0.46284 0-0.85796-0.02258-0.85796-0.39511 0-0.2032 0.12418-0.33867 0.29351-0.42898 0.28222 0.07902 0.6096 0.11289 0.94827 0.11289 1.5353 0 2.5513-0.73378 2.5513-2.0772 0-0.82409-0.37253-1.4111-1.0047-1.7385v-0.1016h1.3998v-1.2192h-1.0273c-0.55316 0-0.89182 0.33867-0.89182 0.79022v0.31609c-0.3048-0.079023-0.65476-0.12418-1.0273-0.12418-1.524 0-2.5287 0.72249-2.5287 2.0772 0 0.85796 0.4064 1.4676 1.095 1.7949v0.06773c-0.63218 0.14676-1.0499 0.38382-1.0499 0.94827 0 0.508 0.31609 0.76764 0.8128 0.9144v0.06773c-0.69991 0.18062-1.1176 0.48542-1.1176 1.1402 0 0.79022 0.6096 1.3434 2.8222 1.3434 2.2126 0 3.2286-0.57573 3.2286-1.8062zm-1.5804 0.12418c0 0.39511-0.33867 0.6096-1.095 0.6096h-0.98213c-0.73378 0-1.016-0.25964-1.016-0.62089 0-0.19191 0.07902-0.34996 0.22578-0.47413h1.9981c0.67733 0 0.86924 0.18062 0.86924 0.48542zm-1.682-3.5786c-0.65476 0-0.94827-0.37253-0.94827-0.88054v-0.27093c0-0.508 0.29351-0.88053 0.94827-0.88053 0.66604 0 0.97085 0.37253 0.97085 0.88053v0.27093c0 0.508-0.3048 0.88054-0.97085 0.88054z"/>
   <path d="m54.114 16.467c0-0.98213-0.64347-1.682-2.3142-1.682h-1.3321c-0.46284 0-0.85796-0.02258-0.85796-0.39511 0-0.2032 0.12418-0.33867 0.29351-0.42898 0.28222 0.07902 0.6096 0.11289 0.94827 0.11289 1.5353 0 2.5513-0.73378 2.5513-2.0772 0-0.82409-0.37253-1.4111-1.0047-1.7385v-0.1016h1.3998v-1.2192h-1.0273c-0.55316 0-0.89182 0.33867-0.89182 0.79022v0.31609c-0.3048-0.079023-0.65476-0.12418-1.0273-0.12418-1.524 0-2.5287 0.72249-2.5287 2.0772 0 0.85796 0.4064 1.4676 1.095 1.7949v0.06773c-0.63218 0.14676-1.0499 0.38382-1.0499 0.94827 0 0.508 0.31609 0.76764 0.8128 0.9144v0.06773c-0.69991 0.18062-1.1176 0.48542-1.1176 1.1402 0 0.79022 0.6096 1.3434 2.8222 1.3434 2.2126 0 3.2286-0.57573 3.2286-1.8062zm-1.5804 0.12418c0 0.39511-0.33867 0.6096-1.095 0.6096h-0.98213c-0.73378 0-1.016-0.25964-1.016-0.62089 0-0.19191 0.07902-0.34996 0.22578-0.47413h1.9981c0.67733 0 0.86924 0.18062 0.86924 0.48542zm-1.682-3.5786c-0.65476 0-0.94827-0.37253-0.94827-0.88054v-0.27093c0-0.508 0.29351-0.88053 0.94827-0.88053 0.66604 0 0.97085 0.37253 0.97085 0.88053v0.27093c0 0.508-0.3048 0.88054-0.97085 0.88054z"/>
   <path d="m64.646 16.015c1.6256 0 2.4723-0.89182 2.7884-2.2691l-1.5804-0.38382c-0.16933 0.74507-0.45156 1.2869-1.2418 1.2869-0.9144 0-1.2644-0.76764-1.2644-2.0207v-1.3772c0-1.2531 0.34996-2.0207 1.2644-2.0207 0.79022 0 1.0724 0.54187 1.2418 1.2869l1.5804-0.38382c-0.31609-1.3772-1.1628-2.2691-2.7884-2.2691-2.111 0-3.1044 1.4901-3.1044 4.0753 0 2.5852 0.99342 4.0753 3.1044 4.0753z"/>
   <path d="m71.239 16.015c1.8175 0 2.9238-1.1628 2.9238-3.048s-1.1063-3.048-2.9238-3.048-2.9238 1.1628-2.9238 3.048 1.1063 3.048 2.9238 3.048zm0-1.2418c-0.74507 0-1.1966-0.48542-1.1966-1.3434v-0.92569c0-0.85796 0.45156-1.3434 1.1966-1.3434 0.74507 0 1.1966 0.48542 1.1966 1.3434v0.92569c0 0.85796-0.45156 1.3434-1.1966 1.3434z"/>
   <path d="m76.308 15.88v-4.1543c0-0.39511 0.23707-0.57573 0.54187-0.57573 0.29351 0 0.48542 0.19191 0.48542 0.73378v3.9963h1.3547v-4.1543c0-0.39511 0.23707-0.57573 0.51929-0.57573 0.3048 0 0.508 0.19191 0.508 0.73378v3.9963h1.3434v-4.1656c0-1.1966-0.4064-1.7949-1.2192-1.7949-0.72249 0-1.0499 0.46285-1.2418 0.99342h-0.06773c-0.12418-0.64347-0.48543-0.99342-1.0386-0.99342-0.62089 0-0.92569 0.45156-1.1063 0.99342h-0.07902v-0.85796h-1.3434v5.8251z"/>
   <path d="m82.065 18.137h1.6708v-3.3189h0.07902c0.29351 0.69991 0.79022 1.1966 1.7272 1.1966 1.2869 0 2.19-0.93698 2.19-3.048s-0.90311-3.048-2.19-3.048c-0.93698 0-1.4337 0.49671-1.7272 1.1966h-0.07902v-1.0612h-1.6708zm2.7545-3.4205c-0.58702 0-1.0837-0.28222-1.0837-0.89182v-1.7159c0-0.6096 0.49671-0.89182 1.0837-0.89182 0.74507 0 1.174 0.48542 1.174 1.2982v0.90311c0 0.8128-0.42898 1.2982-1.174 1.2982z"/>
   <path d="m92.541 15.88h1.6708v-5.8251h-1.6708v3.8269c0 0.56444-0.508 0.84667-1.0273 0.84667-0.65476 0-0.98213-0.39511-0.98213-1.1289v-3.5447h-1.6708v3.7705c0 1.4111 0.77894 2.19 1.8965 2.19 0.93698 0 1.4563-0.54187 1.7159-1.1966h0.06773z"/>
   <path d="m100.94 15.88v-1.2982h-2.2691v-3.2286h2.2691v-1.2982h-2.2691v-2.0546h-1.5353v1.366c0 0.51929-0.19191 0.68862-0.68862 0.68862h-1.0273v1.2982h1.5804v2.8448c0 0.98214 0.57573 1.682 1.7836 1.682z"/>
   <path d="m105.47 9.3094c0.74507 0 1.0047-0.34996 1.0047-0.79022v-0.32738c0-0.45156-0.25964-0.79022-1.0047-0.79022-0.74506 0-1.0047 0.33867-1.0047 0.79022v0.32738c0 0.44027 0.25965 0.79022 1.0047 0.79022zm-2.6868 6.5701h5.238v-1.2982h-1.7159v-4.5268h-3.5221v1.2982h1.8514v3.2286h-1.8514z"/>
   <path d="m110.9 15.88v-3.8269c0-0.56444 0.508-0.84667 1.0273-0.84667 0.65476 0 0.98213 0.39511 0.98213 1.1289v3.5447h1.6708v-3.7705c0-1.4111-0.77893-2.19-1.8965-2.19-0.93698 0-1.4563 0.54187-1.7159 1.1966h-0.0677v-1.0612h-1.6708v5.8251z"/>
   <path d="m121.85 16.467c0-0.98213-0.64347-1.682-2.3142-1.682h-1.3321c-0.46284 0-0.85795-0.02258-0.85795-0.39511 0-0.2032 0.12418-0.33867 0.29351-0.42898 0.28222 0.07902 0.6096 0.11289 0.94827 0.11289 1.5353 0 2.5513-0.73378 2.5513-2.0772 0-0.82409-0.37254-1.4111-1.0047-1.7385v-0.1016h1.3998v-1.2192h-1.0273c-0.55316 0-0.89182 0.33867-0.89182 0.79022v0.31609c-0.3048-0.079023-0.65476-0.12418-1.0273-0.12418-1.524 0-2.5287 0.72249-2.5287 2.0772 0 0.85796 0.4064 1.4676 1.095 1.7949v0.06773c-0.63218 0.14676-1.0499 0.38382-1.0499 0.94827 0 0.508 0.31609 0.76764 0.8128 0.9144v0.06773c-0.69991 0.18062-1.1176 0.48542-1.1176 1.1402 0 0.79022 0.6096 1.3434 2.8222 1.3434 2.2126 0 3.2286-0.57573 3.2286-1.8062zm-1.5804 0.12418c0 0.39511-0.33866 0.6096-1.095 0.6096h-0.98214c-0.73377 0-1.016-0.25964-1.016-0.62089 0-0.19191 0.079-0.34996 0.22578-0.47413h1.9981c0.67733 0 0.86924 0.18062 0.86924 0.48542zm-1.682-3.5786c-0.65476 0-0.94827-0.37253-0.94827-0.88054v-0.27093c0-0.508 0.29351-0.88053 0.94827-0.88053 0.66604 0 0.97084 0.37253 0.97084 0.88053v0.27093c0 0.508-0.3048 0.88054-0.97084 0.88054z"/>
  </g>
 </g>
</svg>
